<?xml version="1.0" encoding="utf-8"?>
<!-- Generator: Adobe Illustrator 16.0.0, SVG Export Plug-In . SVG Version: 6.00 Build 0)  -->
<!DOCTYPE svg PUBLIC "-//W3C//DTD SVG 1.1//EN" "http://www.w3.org/Graphics/SVG/1.1/DTD/svg11.dtd">
<svg version="1.1" id="Layer_1" xmlns="http://www.w3.org/2000/svg" xmlns:xlink="http://www.w3.org/1999/xlink" x="0px" y="0px"
	 width="32px" height="32px" viewBox="0 0 32 32" enable-background="new 0 0 32 32" xml:space="preserve">
<path fill="#BB0000" d="M18.828,16l8.586-8.586c0.781-0.781,0.781-2.047,0-2.828c-0.781-0.781-2.047-0.781-2.828,0L16,13.172
	L7.414,4.586c-0.78-0.781-2.048-0.781-2.828,0c-0.781,0.781-0.781,2.047,0,2.828L13.172,16l-8.586,8.586
	c-0.781,0.781-0.781,2.047,0,2.828C4.976,27.805,5.488,28,6,28s1.024-0.195,1.414-0.586L16,18.828l8.586,8.586
	C24.977,27.805,25.488,28,26,28s1.023-0.195,1.414-0.586c0.781-0.781,0.781-2.047,0-2.828L18.828,16z"/>
</svg>
