<?xml version="1.0" encoding="utf-8"?>
<!-- Generator: Adobe Illustrator 16.0.0, SVG Export Plug-In . SVG Version: 6.00 Build 0)  -->
<!DOCTYPE svg PUBLIC "-//W3C//DTD SVG 1.1//EN" "http://www.w3.org/Graphics/SVG/1.1/DTD/svg11.dtd">
<svg version="1.1" id="Layer_2" xmlns="http://www.w3.org/2000/svg" xmlns:xlink="http://www.w3.org/1999/xlink" x="0px" y="0px"
	 width="32px" height="32px" viewBox="0 0 32 32" enable-background="new 0 0 32 32" xml:space="preserve">
<path d="M21.715,1.061c-1.029-0.396-2.188,0.121-2.583,1.153c-0.395,1.032,0.122,2.188,1.153,2.583C24.899,6.563,28,11.065,28,16
	c0,6.617-5.383,12-12,12C9.383,28,4,22.617,4,16c0-3.366,1.444-6.528,3.825-8.761l3.468,3.468C11.484,10.898,11.74,11,12,11
	c0.129,0,0.259-0.025,0.383-0.076C12.756,10.769,13,10.404,13,10V1c0-0.552-0.448-1-1-1H3C2.596,0,2.231,0.244,2.076,0.617
	c-0.155,0.374-0.069,0.804,0.217,1.09l2.708,2.708C1.887,7.386,0,11.559,0,16c0,8.822,7.178,16,16,16s16-7.178,16-16
	C32,9.418,27.867,3.415,21.715,1.061z"/>
</svg>
